<?xml version="1.0" encoding="utf-8"?>
<!-- Generator: Adobe Illustrator 27.7.0, SVG Export Plug-In . SVG Version: 6.00 Build 0)  -->
<svg version="1.1" xmlns="http://www.w3.org/2000/svg" xmlns:xlink="http://www.w3.org/1999/xlink" x="0px" y="0px"
	 viewBox="0 0 1920 1080" style="enable-background:new 0 0 1920 1080;" xml:space="preserve">
<style type="text/css">
	.st0{fill:none;}
	.st1{fill:#FFFFFF;}
	.st2{fill:url(#_x27__00000181782529138507150620000017895259188961684891_);}
	.st3{display:none;}
</style>
<g id="LOGOTYPE">
	<g>
		<rect x="571.2" y="284.6" class="st0" width="777.6" height="510.8"/>
		<path class="st1" d="M1112,465.1l0.2,0.2l-20.6,30.5h37.4v127h36.5v-127h54.2v-30.8L1112,465.1z M1037,623.8h34.3V509.3H1037
			V623.8z M927.6,666.3c12.8,0,22.3-2.8,28.6-8.4s12-15.8,17-30.6l45.1-132.6h-34.5l-18.1,58.2c-3.1,9.3-5.6,18.7-7.6,28.2h-0.5
			l-8.3-28.2l-19.1-58.2h-36l34.8,92c6.6,17.6,9.8,29.3,9.8,35c0,11.8-6.4,17.6-19.2,17.6h-19.5v27H927.6z M847.7,577.8l34.3,48.9
			V443.8h-34.3V577.8z M700.3,443.8v134.1l36.6,48.9v-77.3h78.4v-31.3h-78.4v-43.3h92.5v-31H700.3z"/>
		
			<linearGradient id="_x27__00000164497706409255012260000000374929931627202228_" gradientUnits="userSpaceOnUse" x1="1053.1643" y1="463.3443" x2="1053.1643" y2="494.1674">
			<stop  offset="4.475343e-07" style="stop-color:#FFFFFF"/>
			<stop  offset="1" style="stop-color:#FFFFFF;stop-opacity:0"/>
		</linearGradient>
		
			<path id="_x27__00000078039565381155802840000012879814988574000309_" style="fill:url(#_x27__00000164497706409255012260000000374929931627202228_);" d="
			M1050.7,413.7h-33.6l38.5,51.4l-21.3,30.8h34.2l20.7-30.8L1050.7,413.7z"/>
	</g>
</g>
<g id="REPERES" class="st3">
</g>
</svg>
