<?xml version="1.0" encoding="utf-8"?>
<!-- Generator: Adobe Illustrator 27.7.0, SVG Export Plug-In . SVG Version: 6.00 Build 0)  -->
<svg version="1.1" xmlns="http://www.w3.org/2000/svg" xmlns:xlink="http://www.w3.org/1999/xlink" x="0px" y="0px"
	 viewBox="0 0 1920 1080" style="enable-background:new 0 0 1920 1080;" xml:space="preserve">
<style type="text/css">
	.st0{fill:none;}
	.st1{fill:#8AAFD0;}
	.st2{fill:url(#_x27__00000100354768234316354620000005614451441509852068_);}
	.st3{fill:#2F70A8;}
	.st4{display:none;}
</style>
<g id="LOGOTYPE">
	<g>
		<rect x="571.2" y="284.6" class="st0" width="777.6" height="510.8"/>
		<path id="T" class="st1" d="M1219.7,465.1v30.8h-54.2v127H1129v-127h-37.4l20.6-30.5l-0.2-0.2L1219.7,465.1z"/>
		<rect id="I" x="1037" y="509.3" class="st1" width="34.3" height="114.5"/>
		
			<linearGradient id="_x27__00000073003120775196042510000007846491014411851146_" gradientUnits="userSpaceOnUse" x1="1053.1643" y1="465.4082" x2="1053.1643" y2="496.2588">
			<stop  offset="2.237672e-07" style="stop-color:#8AAFD0"/>
			<stop  offset="1" style="stop-color:#8AAFD0;stop-opacity:0"/>
		</linearGradient>
		<path id="_x27_" style="fill:url(#_x27__00000073003120775196042510000007846491014411851146_);" d="M1089.2,465.1l-20.7,30.8
			h-34.2l21.3-30.8l-38.5-51.4h33.6L1089.2,465.1z"/>
		<path id="Y" class="st3" d="M900.1,666.3v-27h19.5c12.8,0,19.2-5.9,19.2-17.6c0-5.7-3.3-17.4-9.8-35l-34.8-92h36l19.1,58.2
			l8.3,28.2h0.5c2-9.5,4.5-19,7.6-28.2l18.1-58.2h34.5l-45.1,132.6c-5,14.8-10.7,25-17,30.6s-15.8,8.5-28.6,8.4H900.1z"/>
		<path id="L" class="st3" d="M847.7,443.8H882v182.9l-34.3-48.9V443.8z"/>
		<path id="F" class="st3" d="M700.3,443.8v134.1l36.6,48.9v-77.3h78.4v-31.3h-78.4v-43.3h92.5v-31H700.3z"/>
	</g>
</g>
<g id="REPERES" class="st4">
</g>
</svg>
