<?xml version="1.0" encoding="utf-8"?>
<!-- Generator: Adobe Illustrator 27.7.0, SVG Export Plug-In . SVG Version: 6.00 Build 0)  -->
<svg version="1.1" xmlns="http://www.w3.org/2000/svg" xmlns:xlink="http://www.w3.org/1999/xlink" x="0px" y="0px"
	 viewBox="0 0 1920 1080" style="enable-background:new 0 0 1920 1080;" xml:space="preserve">
<style type="text/css">
	.st0{fill:none;}
	.st1{fill:url(#Tirette_00000021809189403803104210000005396031434103385522_);}
	.st2{fill:url(#_x27__00000026884340712065060170000006608378821309626039_);}
	.st3{fill:url(#SVGID_1_);}
	.st4{display:none;}
</style>
<g id="LOGOTYPE">
	<g>
		<rect id="Zone_de_protection" x="575.4" y="255.4" class="st0" width="777.7" height="572.3"/>
		
			<linearGradient id="Tirette_00000042710395280713589240000001381446771352393123_" gradientUnits="userSpaceOnUse" x1="695.7765" y1="683.5107" x2="824.5505" y2="683.5107">
			<stop  offset="0" style="stop-color:#183368;stop-opacity:0"/>
			<stop  offset="1" style="stop-color:#183166"/>
		</linearGradient>
		<path id="Tirette" style="fill:url(#Tirette_00000042710395280713589240000001381446771352393123_);" d="M690.7,669.1
			c-1.1,0-2,1-2,2.1v9.6c0,7.2,4.2,18,11.5,18h154.2l5.2-30.5L690.7,669.1z"/>
		
			<linearGradient id="_x27__00000029021223486926742210000007062978862331816844_" gradientUnits="userSpaceOnUse" x1="1057.4012" y1="433.8941" x2="1057.4012" y2="464.7172">
			<stop  offset="2.237672e-07" style="stop-color:#183166"/>
			<stop  offset="1" style="stop-color:#183368;stop-opacity:0"/>
		</linearGradient>
		<path id="_x27_" style="fill:url(#_x27__00000029021223486926742210000007062978862331816844_);" d="M1055,384.2h-33.6l38.5,51.4
			l-21.3,30.8h34.2l20.7-30.8L1055,384.2z"/>
		<linearGradient id="SVGID_1_" gradientUnits="userSpaceOnUse" x1="848.6505" y1="559.2661" x2="1368.2568" y2="559.2661">
			<stop  offset="0" style="stop-color:#090B40"/>
			<stop  offset="1" style="stop-color:#2F6EA6"/>
		</linearGradient>
		<path class="st3" d="M908.6,668.2h-11.5l-5.4,30.5h11.8c9.5,0,17.5-5.9,17.5-18.1C921,672,915.6,668.2,908.6,668.2z M903.8,695.3
			h-7.6l4.1-23.7h7.6c5.1,0,9.1,2.6,9.1,9C917,690.9,910.6,695.3,903.8,695.3z M942,667.6c-10.5,0-17.7,7.6-18,18.5
			c-0.2,9,6.1,13.2,12.8,13.2c10.5,0,17.7-7.6,18-18.5C955,671.8,948.7,667.6,942,667.6z M937.2,695.9c-5.8,0-9.1-3.8-9.1-9.8
			c0-8.2,5.4-15.1,13.6-15.1c5.8,0,9.1,3.8,9.1,9.8C950.7,688.9,945.3,695.9,937.2,695.9z M956.3,698.7l5.4-30.5h4l13.2,24.1h0.4
			l4.2-24.1h3.8l-5.4,30.5h-4l-13.2-24.1h-0.4l-4.3,24.1H956.3z M991,675l3.1-10.7h4.5l-4.8,10.7H991z M1005,698.7l4.8-27.1h-10.2
			l0.6-3.4h24.4l-0.6,3.4h-10.2l-4.8,27.1H1005z M1055.6,685.3l0.1-0.4c4.7-1.5,6.9-4.6,6.9-9.6c0-3.9-2.6-7.1-9.9-7.1h-11.7
			l-5.4,30.5h3.8l2.1-11.8h8.2c5.6,0,6.2,2.7,6.4,5.9l0.3,6h3.9l-0.4-6.2C1059.8,688.5,1059,686.4,1055.6,685.3z M1050,683.4h-7.8
			l2.1-11.8h8.1c5,0,6.1,2.1,6.1,4.8C1058.5,679.8,1056.3,683.4,1050,683.4z M1066.8,687l3.4-18.8h3.8l-3.4,18.8
			c-1,5.9,1.8,8.8,7.6,8.8c5.8,0,9.6-3.1,10.6-9l3.3-18.7h3.8l-3.3,18.7c-1.5,8.6-6.3,12.4-14.7,12.4
			C1070,699.3,1065.3,695.4,1066.8,687z M1096.2,698.7l5.4-30.5h4l13.2,24.1h0.4l4.2-24.1h3.8l-5.4,30.5h-4l-13.2-24.1h-0.4
			l-4.3,24.1H1096.2z M1125.4,704.2l3-10.7h4.5l-4.8,10.7H1125.4z M1149.7,698.7l5.4-30.5h20.5l-0.6,3.4h-16.7l-2,11.4h14.7
			l-0.6,3.4h-14.7l-2.2,12.3H1149.7z M1174.5,698.7l5.4-30.5h3.8l-4.7,27.1h16.4l-0.6,3.4H1174.5z M1202.8,698.7l2.1-11.9l-8.6-18.6
			h4.1l6.8,14.8h0.3l12.1-14.8h4.4l-15.3,18.7l-2.1,11.7H1202.8z M1116.2,435.7l0.2,0.2l-20.6,30.5h37.4v127h36.5v-127h54.2v-30.8
			L1116.2,435.7z M1041.2,594.3h34.3V479.8h-34.3V594.3z M931.8,636.9c12.8,0,22.3-2.8,28.6-8.4c6.3-5.6,12-15.8,17-30.6l45.1-132.6
			H988l-18.1,58.2c-3.1,9.3-5.6,18.7-7.6,28.2h-0.5l-8.3-28.2l-19.1-58.2h-36l34.8,92c6.6,17.6,9.8,29.3,9.8,35
			c0,11.8-6.4,17.6-19.2,17.6h-19.5v27H931.8z M851.9,548.4l34.3,48.9V414.3h-34.3V548.4z M704.5,414.3v134.1l36.6,48.9v-77.3h78.4
			v-31.3H741v-43.3h92.5v-31H704.5z"/>
	</g>
</g>
<g id="REPERES" class="st4">
</g>
</svg>
