<?xml version="1.0" encoding="utf-8"?>
<!-- Generator: Adobe Illustrator 27.7.0, SVG Export Plug-In . SVG Version: 6.00 Build 0)  -->
<svg version="1.1" xmlns="http://www.w3.org/2000/svg" xmlns:xlink="http://www.w3.org/1999/xlink" x="0px" y="0px"
	 viewBox="0 0 1920 1080" style="enable-background:new 0 0 1920 1080;" xml:space="preserve">
<style type="text/css">
	.st0{fill:none;}
	.st1{enable-background:new    ;}
	.st2{fill:url(#Tirette_00000049905385300445902190000015038363026301640331_);}
	.st3{fill:url(#_x27__00000170957440486785754030000010797631712225653400_);}
	.st4{display:none;}
</style>
<g id="LOGOTYPE">
	<g>
		<rect id="Zone_de_protection" x="574.8" y="254.9" class="st0" width="779.1" height="573.3"/>
		<g id="Fly_x27_IT">
			<g id="Don_x27_t_run_x2C__fly" class="st1">
				<path d="M891.6,698.9l5.4-30.5h11.5c7.1,0,12.5,3.8,12.5,12.4c0,12.2-8,18.1-17.5,18.1H891.6z M896.1,695.5h7.6
					c6.8,0,13.3-4.4,13.3-14.7c0-6.4-4-9-9.1-9h-7.6L896.1,695.5z"/>
				<path d="M924,686.3c0.3-10.9,7.5-18.5,18-18.5c6.7,0,13,4.2,12.8,13.2c-0.3,10.9-7.5,18.5-18,18.5
					C930,699.5,923.8,695.4,924,686.3z M950.7,681c0-6-3.3-9.8-9.2-9.8c-8.2,0-13.6,6.9-13.6,15.1c0,6,3.3,9.8,9.2,9.8
					C945.3,696.1,950.7,689.2,950.7,681z"/>
				<path d="M956.3,698.9l5.4-30.5h4l13.3,24.1h0.4l4.2-24.1h3.8l-5.4,30.5h-4l-13.2-24.1h-0.4l-4.3,24.1H956.3z"/>
				<path d="M991,675.3l3.1-10.7h4.5l-4.8,10.7H991z"/>
				<path d="M1005,698.9l4.8-27.1h-10.3l0.6-3.4h24.4l-0.6,3.4h-10.3l-4.8,27.1H1005z"/>
				<path d="M1035.8,698.9l5.4-30.5h11.7c7.3,0,9.9,3.2,9.9,7.1c0,5-2.3,8.1-6.9,9.6l-0.1,0.4c3.4,1.2,4.2,3.3,4.4,7.2l0.4,6.2h-3.9
					l-0.3-6c-0.2-3.1-0.8-5.9-6.4-5.9h-8.2l-2.1,11.8H1035.8z M1042.3,683.7h7.8c6.2,0,8.5-3.6,8.5-7.1c0-2.7-1.2-4.8-6.1-4.8h-8.1
					L1042.3,683.7z"/>
				<path d="M1066.9,687.2l3.4-18.8h3.8l-3.4,18.9c-1,5.9,1.8,8.9,7.7,8.9c5.8,0,9.6-3.1,10.6-9l3.3-18.7h3.8l-3.3,18.7
					c-1.5,8.6-6.3,12.4-14.8,12.4C1070.1,699.5,1065.4,695.7,1066.9,687.2z"/>
				<path d="M1096.4,698.9l5.4-30.5h4l13.3,24.1h0.4l4.2-24.1h3.8l-5.4,30.5h-4l-13.2-24.1h-0.4l-4.3,24.1H1096.4z"/>
				<path d="M1125.7,704.5l3-10.7h4.5l-4.8,10.7H1125.7z"/>
				<path d="M1150,698.9l5.4-30.5h20.5l-0.6,3.4h-16.7l-2,11.4h14.8l-0.6,3.4H1156l-2.2,12.3H1150z"/>
				<path d="M1174.9,698.9l5.4-30.5h3.8l-4.7,27.1h16.5l-0.6,3.4H1174.9z"/>
				<path d="M1203.2,698.9l2.1-11.9l-8.6-18.6h4.1l6.8,14.8h0.3l12.1-14.8h4.4l-15.4,18.8l-2.1,11.8H1203.2z"/>
			</g>
			
				<linearGradient id="Tirette_00000106831157037774204390000009478977227788108467_" gradientUnits="userSpaceOnUse" x1="860.0542" y1="683.7587" x2="701.3535" y2="683.7587">
				<stop  offset="0" style="stop-color:#000000"/>
				<stop  offset="1" style="stop-color:#000000;stop-opacity:0"/>
			</linearGradient>
			<path id="Tirette" style="fill:url(#Tirette_00000106831157037774204390000009478977227788108467_);" d="M859.4,668.5l-5.3,30.6
				H699.7c-7.3,0-11.5-10.8-11.5-18v-9.6c0-1.1,0.9-2.1,2-2.1L859.4,668.5z"/>
			<path id="T" d="M1224.4,435.5v30.8h-54.3v127.3h-36.6V466.3H1096l20.6-30.6l-0.2-0.2L1224.4,435.5z"/>
			<rect id="I" x="1041.4" y="479.7" width="34.3" height="114.7"/>
			
				<linearGradient id="_x27__00000134221438247608264310000010274701941047273403_" gradientUnits="userSpaceOnUse" x1="1057.564" y1="435.7734" x2="1057.564" y2="466.6779">
				<stop  offset="2.237672e-07" style="stop-color:#000000"/>
				<stop  offset="1" style="stop-color:#000000;stop-opacity:0"/>
			</linearGradient>
			<path id="_x27_" style="fill:url(#_x27__00000134221438247608264310000010274701941047273403_);" d="M1093.7,435.5l-20.7,30.8
				h-34.2l21.3-30.8l-38.6-51.5h33.7L1093.7,435.5z"/>
			<path id="Y" d="M904.2,637v-27h19.5c12.8,0,19.2-5.9,19.2-17.7c0-5.7-3.3-17.4-9.8-35.1l-34.9-92.2h36.1l19.2,58.3l8.3,28.3h0.5
				c2-9.6,4.5-19,7.6-28.3l18.2-58.3h34.6l-45.2,132.8c-5,14.8-10.7,25-17,30.7c-6.3,5.6-15.9,8.5-28.7,8.5H904.2z"/>
			<path id="L" d="M851.7,414.1h34.3v183.2l-34.3-48.9V414.1z"/>
			<path id="F" d="M704,414.1v134.3l36.6,48.9v-77.4h78.5v-31.3h-78.5v-43.4h92.7v-31.1H704z"/>
		</g>
	</g>
</g>
<g id="REPERES" class="st4">
</g>
</svg>
