<?xml version="1.0" encoding="utf-8"?>
<!-- Generator: Adobe Illustrator 27.7.0, SVG Export Plug-In . SVG Version: 6.00 Build 0)  -->
<svg version="1.1" xmlns="http://www.w3.org/2000/svg" xmlns:xlink="http://www.w3.org/1999/xlink" x="0px" y="0px"
	 viewBox="0 0 1920 1080" style="enable-background:new 0 0 1920 1080;" xml:space="preserve">
<style type="text/css">
	.st0{fill:url(#Fly_x27_IT_00000176031847760671831850000002445976762422526367_);}
	.st1{fill:url(#_x27__00000103251397757965428220000004881809558419164085_);}
	.st2{fill:url(#Tirette_00000059288470919627354220000017335918981589841079_);}
	.st3{fill:none;}
	.st4{display:none;}
</style>
<g id="LOGOTYPE">
	<g>
		<g>
			<g>
				
					<linearGradient id="Fly_x27_IT_00000132780368801088305850000005049978817446604694_" gradientUnits="userSpaceOnUse" x1="984.2911" y1="559.2661" x2="1503.8975" y2="559.2661">
					<stop  offset="0" style="stop-color:#090B40"/>
					<stop  offset="1" style="stop-color:#89FBDC"/>
				</linearGradient>
				<path id="Fly_x27_IT" style="fill:url(#Fly_x27_IT_00000132780368801088305850000005049978817446604694_);" d="M891.7,698.7
					l5.4-30.5h11.5c7,0,12.5,3.8,12.5,12.4c0,12.2-8,18.1-17.5,18.1H891.7z M896.2,695.3h7.6c6.8,0,13.2-4.4,13.2-14.7
					c0-6.4-4-9-9.1-9h-7.6L896.2,695.3z M924,686.1c0.3-10.9,7.5-18.5,18-18.5c6.7,0,13,4.2,12.8,13.2c-0.3,10.9-7.5,18.5-18,18.5
					C930.1,699.3,923.9,695.1,924,686.1z M950.7,680.8c0-6-3.3-9.8-9.1-9.8c-8.2,0-13.6,6.9-13.6,15.1c0,6,3.3,9.8,9.1,9.8
					C945.3,695.9,950.7,688.9,950.7,680.8z M956.3,698.7l5.4-30.5h4l13.2,24.1h0.4l4.2-24.1h3.8l-5.4,30.5h-4l-13.2-24.1h-0.4
					l-4.3,24.1H956.3z M991,675l3.1-10.7h4.5l-4.8,10.7H991z M1005,698.7l4.8-27.1h-10.2l0.6-3.4h24.4l-0.6,3.4h-10.2l-4.8,27.1
					H1005z M1035.7,698.7l5.4-30.5h11.7c7.3,0,9.9,3.2,9.9,7.1c0,5-2.3,8.1-6.9,9.6l-0.1,0.4c3.4,1.2,4.2,3.2,4.4,7.2l0.4,6.2h-3.9
					l-0.3-6c-0.2-3.1-0.8-5.9-6.4-5.9h-8.2l-2.1,11.8H1035.7z M1042.2,683.4h7.8c6.2,0,8.5-3.6,8.5-7c0-2.7-1.2-4.8-6.1-4.8h-8.1
					L1042.2,683.4z M1066.8,687l3.4-18.8h3.8l-3.4,18.8c-1,5.9,1.8,8.8,7.6,8.8c5.8,0,9.6-3.1,10.6-9l3.3-18.7h3.8l-3.3,18.7
					c-1.5,8.6-6.3,12.4-14.7,12.4C1070,699.3,1065.3,695.4,1066.8,687z M1096.2,698.7l5.4-30.5h4l13.2,24.1h0.4l4.2-24.1h3.8
					l-5.4,30.5h-4l-13.2-24.1h-0.4l-4.3,24.1H1096.2z M1125.4,704.2l3-10.7h4.5l-4.8,10.7H1125.4z M1149.7,698.7l5.4-30.5h20.5
					l-0.6,3.4h-16.7l-2,11.4h14.7l-0.6,3.4h-14.7l-2.2,12.3H1149.7z M1174.5,698.7l5.4-30.5h3.8l-4.7,27.1h16.4l-0.6,3.4H1174.5z
					 M1202.8,698.7l2.1-11.9l-8.6-18.6h4.1l6.8,14.8h0.3l12.1-14.8h4.4l-15.3,18.7l-2.1,11.7H1202.8z M1116.2,435.7l0.2,0.2
					l-20.6,30.5h37.4v127h36.5v-127h54.2v-30.8L1116.2,435.7z M1041.2,594.3h34.3V479.8h-34.3V594.3z M931.8,636.9
					c12.8,0,22.3-2.8,28.6-8.4c6.3-5.6,12-15.8,17-30.6l45.1-132.6H988l-18.1,58.2c-3.1,9.3-5.6,18.7-7.6,28.2h-0.5l-8.3-28.2
					l-19.1-58.2h-36l34.8,92c6.6,17.6,9.8,29.3,9.8,35c0,11.8-6.4,17.6-19.2,17.6h-19.5v27H931.8z M851.9,548.4l34.3,48.9V414.3
					h-34.3V548.4z M704.5,414.3v134.1l36.6,48.9v-77.3h78.4v-31.3H741v-43.3h92.5v-31H704.5z"/>
			</g>
			
				<linearGradient id="_x27__00000083080231014573931890000001289170247978248358_" gradientUnits="userSpaceOnUse" x1="1057.4012" y1="435.0235" x2="1057.4012" y2="465.0181">
				<stop  offset="2.237672e-07" style="stop-color:#1E3359"/>
				<stop  offset="1" style="stop-color:#2F6EA6;stop-opacity:0"/>
			</linearGradient>
			<path id="_x27_" style="fill:url(#_x27__00000083080231014573931890000001289170247978248358_);" d="M1055,384.2h-33.6l38.5,51.4
				l-21.3,30.8h34.2l20.7-30.8L1055,384.2z"/>
			
				<linearGradient id="Tirette_00000013172174423126486070000007772882991086927502_" gradientUnits="userSpaceOnUse" x1="707.8763" y1="683.5107" x2="828.8506" y2="683.5107">
				<stop  offset="0" style="stop-color:#0A0B3F;stop-opacity:0"/>
				<stop  offset="1" style="stop-color:#0A0B3F"/>
			</linearGradient>
			<path id="Tirette" style="fill:url(#Tirette_00000013172174423126486070000007772882991086927502_);" d="M690.7,669.1
				c-1.1,0-2,1-2,2.1v9.6c0,7.2,4.2,18,11.5,18h154.2l5.2-30.5L690.7,669.1z"/>
		</g>
		<rect id="Zone_de_protection" x="575.4" y="255.4" class="st3" width="777.7" height="572.3"/>
	</g>
</g>
<g id="REPERES" class="st4">
</g>
</svg>
