<?xml version="1.0" encoding="utf-8"?>
<!-- Generator: Adobe Illustrator 27.7.0, SVG Export Plug-In . SVG Version: 6.00 Build 0)  -->
<svg version="1.1" xmlns="http://www.w3.org/2000/svg" xmlns:xlink="http://www.w3.org/1999/xlink" x="0px" y="0px"
	 viewBox="0 0 1920 1080" style="enable-background:new 0 0 1920 1080;" xml:space="preserve">
<style type="text/css">
	.st0{fill:none;}
	.st1{enable-background:new    ;}
	.st2{fill:#FFFFFF;}
	.st3{fill:url(#Tirette_00000083772163986660459680000004946002008986030262_);}
	.st4{fill:url(#_x27__00000170961916118687181780000005126625172964573059_);}
	.st5{display:none;}
</style>
<g id="LOGOTYPE">
	<g>
		<rect id="Zone_de_protection" x="575.4" y="255.4" class="st0" width="777.7" height="572.3"/>
		<g id="Fly_x27_IT">
			<g id="Don_x27_t_run_x2C__fly" class="st1">
				<path class="st2" d="M891.7,698.7l5.4-30.5h11.5c7,0,12.5,3.8,12.5,12.4c0,12.2-8,18.1-17.5,18.1H891.7z M896.2,695.3h7.6
					c6.8,0,13.2-4.4,13.2-14.7c0-6.4-4-9-9.1-9h-7.6L896.2,695.3z"/>
				<path class="st2" d="M924,686.1c0.3-10.9,7.5-18.5,18-18.5c6.7,0,13,4.2,12.8,13.2c-0.3,10.9-7.5,18.5-18,18.5
					C930.1,699.3,923.9,695.1,924,686.1z M950.7,680.8c0-6-3.3-9.8-9.1-9.8c-8.2,0-13.6,6.9-13.6,15.1c0,6,3.3,9.8,9.1,9.8
					C945.3,695.9,950.7,688.9,950.7,680.8z"/>
				<path class="st2" d="M956.3,698.7l5.4-30.5h4l13.2,24.1h0.4l4.2-24.1h3.8l-5.4,30.5h-4l-13.2-24.1h-0.4l-4.3,24.1H956.3z"/>
				<path class="st2" d="M991,675l3.1-10.7h4.5l-4.8,10.7H991z"/>
				<path class="st2" d="M1005,698.7l4.8-27.1h-10.2l0.6-3.4h24.4l-0.6,3.4h-10.2l-4.8,27.1H1005z"/>
				<path class="st2" d="M1035.7,698.7l5.4-30.5h11.7c7.3,0,9.9,3.2,9.9,7.1c0,5-2.3,8.1-6.9,9.6l-0.1,0.4c3.4,1.2,4.2,3.2,4.4,7.2
					l0.4,6.2h-3.9l-0.3-6c-0.2-3.1-0.8-5.9-6.4-5.9h-8.2l-2.1,11.8H1035.7z M1042.2,683.4h7.8c6.2,0,8.5-3.6,8.5-7
					c0-2.7-1.2-4.8-6.1-4.8h-8.1L1042.2,683.4z"/>
				<path class="st2" d="M1066.8,687l3.4-18.8h3.8l-3.4,18.8c-1,5.9,1.8,8.8,7.6,8.8c5.8,0,9.6-3.1,10.6-9l3.3-18.7h3.8l-3.3,18.7
					c-1.5,8.6-6.3,12.4-14.7,12.4C1070,699.3,1065.3,695.4,1066.8,687z"/>
				<path class="st2" d="M1096.2,698.7l5.4-30.5h4l13.2,24.1h0.4l4.2-24.1h3.8l-5.4,30.5h-4l-13.2-24.1h-0.4l-4.3,24.1H1096.2z"/>
				<path class="st2" d="M1125.4,704.2l3-10.7h4.5l-4.8,10.7H1125.4z"/>
				<path class="st2" d="M1149.7,698.7l5.4-30.5h20.5l-0.6,3.4h-16.7l-2,11.4h14.7l-0.6,3.4h-14.7l-2.2,12.3H1149.7z"/>
				<path class="st2" d="M1174.5,698.7l5.4-30.5h3.8l-4.7,27.1h16.4l-0.6,3.4H1174.5z"/>
				<path class="st2" d="M1202.8,698.7l2.1-11.9l-8.6-18.6h4.1l6.8,14.8h0.3l12.1-14.8h4.4l-15.3,18.7l-2.1,11.7H1202.8z"/>
			</g>
			
				<linearGradient id="Tirette_00000156571976530658609750000005454139970963268537_" gradientUnits="userSpaceOnUse" x1="860.236" y1="683.5107" x2="701.8121" y2="683.5107">
				<stop  offset="4.528621e-07" style="stop-color:#FFFFFF"/>
				<stop  offset="1" style="stop-color:#FFFFFF;stop-opacity:0"/>
			</linearGradient>
			<path id="Tirette" style="fill:url(#Tirette_00000156571976530658609750000005454139970963268537_);" d="M859.6,668.2l-5.2,30.5
				H700.2c-7.3,0-11.5-10.8-11.5-18v-9.6c0-1.1,0.9-2.1,2-2.1L859.6,668.2z"/>
			<path id="T" class="st2" d="M1224,435.7v30.8h-54.2v127h-36.5v-127h-37.4l20.6-30.5l-0.2-0.2L1224,435.7z"/>
			<rect id="I" x="1041.2" y="479.8" class="st2" width="34.3" height="114.5"/>
			
				<linearGradient id="_x27__00000054251782409293099180000012967297070147862412_" gradientUnits="userSpaceOnUse" x1="1057.4012" y1="435.9579" x2="1057.4012" y2="466.8086">
				<stop  offset="2.237672e-07" style="stop-color:#FFFFFF"/>
				<stop  offset="1" style="stop-color:#FFFFFF;stop-opacity:0"/>
			</linearGradient>
			<path id="_x27_" style="fill:url(#_x27__00000054251782409293099180000012967297070147862412_);" d="M1093.4,435.7l-20.7,30.8
				h-34.2l21.3-30.8l-38.5-51.4h33.6L1093.4,435.7z"/>
			<path id="Y" class="st2" d="M904.3,636.9v-27h19.5c12.8,0,19.2-5.9,19.2-17.6c0-5.7-3.3-17.4-9.8-35l-34.8-92h36l19.1,58.2
				l8.3,28.2h0.5c2-9.5,4.5-19,7.6-28.2l18.1-58.2h34.5l-45.1,132.6c-5,14.8-10.7,25-17,30.6c-6.3,5.6-15.8,8.5-28.6,8.4H904.3z"/>
			<path id="L" class="st2" d="M851.9,414.3h34.3v182.9l-34.3-48.9V414.3z"/>
			<path id="F" class="st2" d="M704.5,414.3v134.1l36.6,48.9v-77.3h78.4v-31.3H741v-43.3h92.5v-31H704.5z"/>
		</g>
	</g>
</g>
<g id="REPERES" class="st5">
</g>
</svg>
